{"title":"20141102 - The Church - by Jonathan Agrimson.mp4","uid":11365735,"size":239833223,"categoryP":"video","categoryS":"other","magnet":"?xt=urn:btih:a99d74736f1fa3eb7af300acab1778a5cc09c43a&amp;dn=20141102+-+The+Church+-+by+Jonathan+Agrimson.mp4&amp;tr=udp%3A%2F%2Ftracker.openbittorrent.com%3A80&amp;tr=udp%3A%2F%2Fopen.demonii.com%3A1337&amp;tr=udp%3A%2F%2Ftracker.coppersurfer.tk%3A6969&amp;tr=udp%3A%2F%2Fexodus.desync.com%3A6969","seeders":2,"leechers":0,"uploader":"davidrpeet","files":1,"time":1415042093,"description":"The Church - Jonathan Agrimson\nWeekly sermons from CrossRoads Church in Decatur, Texas\n\n\nGeneral\nFormat                                   : MPEG-4\nFormat profile                           : Base Media / Version 2\nCodec ID                                 : mp42\nFile size                                : 229 MiB\nDuration                                 : 37mn 48s\nOverall bit rate mode                    : Variable\nOverall bit rate                         : 846 Kbps\nMovie name                               : The Church\nAlbum                                    : CrossRoads Church \nAlbum/Performer                          : Darren Embree\nPerformer                                : Jonathan Agrimson\nComposer                                 : http://crossroadspeople.com/\nGenre                                    : Speech\nRecorded date                            : 2014\nEncoded date                             : UTC 2014-11-03 05:47:22\nTagged date                              : UTC 2014-11-03 05:47:22\nCover                                    : Yes\nComment                                  : CrossRoads To Go Video Podcasts\n\nVideo\nID                                       : 1\nFormat                                   : AVC\nFormat/Info                              : Advanced Video Codec\nFormat profile                           : &lt;a class=&quot;__cf_email__&quot; href=&quot;/cdn-cgi/l/email-protection&quot; data-cfemail=&quot;c28aaba5aa828ef1ecf3&quot;&gt;[email&amp;#160;protected]&lt;/a&gt;&lt;script cf-hash='f9e31' type=&quot;text/javascript&quot;&gt;\n/* &lt;![CDATA[ */!function(){try{var t=&quot;currentScript&quot;in document?document.currentScript:function(){for(var t=document.getElementsByTagName(&quot;script&quot;),e=t.length;e--;)if(t[e].getAttribute(&quot;cf-hash&quot;))return t[e]}();if(t&amp;&amp;t.previousSibling){var e,r,n,i,c=t.previousSibling,a=c.getAttribute(&quot;data-cfemail&quot;);if(a){for(e=&quot;&quot;,r=parseInt(a.substr(0,2),16),n=2;a.length-n;n+=2)i=parseInt(a.substr(n,2),16)^r,e+=String.fromCharCode(i);e=document.createTextNode(e),c.parentNode.replaceChild(e,c)}}}catch(u){}}();/* ]]&gt; */&lt;/script&gt;\nFormat settings, CABAC                   : Yes\nFormat settings, ReFrames                : 4 frames\nCodec ID                                 : avc1\nCodec ID/Info                            : Advanced Video Coding\nDuration                                 : 37mn 48s\nBit rate                                 : 738 Kbps\nWidth                                    : 640 pixels\nHeight                                   : 480 pixels\nDisplay aspect ratio                     : 4:3\nFrame rate mode                          : Constant\nFrame rate                               : 29.970 fps\nColor space                              : YUV\nChroma subsampling                       : 4:2:0\nBit depth                                : 8 bits\nScan type                                : Progressive\nBits/(Pixel*Frame)                       : 0.080\nStream size                              : 200 MiB (87%)\nWriting library                          : x264 core 142 r2453 ea0ca51\nEncoded date                             : UTC 2014-11-03 05:47:22\nTagged date                              : UTC 2014-11-03 05:47:22\nColor primaries                          : BT.601 NTSC\nTransfer characteristics                 : BT.601\nMatrix coefficients                      : BT.601\n\nAudio\nID                                       : 2\nFormat                                   : AAC\nFormat/Info                              : Advanced Audio Codec\nFormat profile                           : LC\nCodec ID                                 : 40\nDuration                                 : 37mn 48s\nBit rate mode                            : Variable\nBit rate                                 : 103 Kbps\nChannel(s)                               : 2 channels\nChannel positions                        : Front: L R\nSampling rate                            : 48.0 KHz\nCompression mode                         : Lossy\nStream size                              : 27.8 MiB (12%)\nEncoded date                             : UTC 2014-11-03 05:47:22\nTagged date                              : UTC 2014-11-03 05:47:22","torrent":{"xt":"urn:btih:a99d74736f1fa3eb7af300acab1778a5cc09c43a","amp;dn":"20141102+-+The+Church+-+by+Jonathan+Agrimson.mp4","amp;tr":["udp%3A%2F%2Ftracker.openbittorrent.com%3A80","udp%3A%2F%2Fopen.demonii.com%3A1337","udp%3A%2F%2Ftracker.coppersurfer.tk%3A6969","udp%3A%2F%2Fexodus.desync.com%3A6969"],"infoHash":"a99d74736f1fa3eb7af300acab1778a5cc09c43a","infoHashBuffer":{"type":"Buffer","data":[169,157,116,115,111,31,163,235,122,243,0,172,171,23,120,165,204,9,196,58]},"announce":[],"urlList":[]}}